<svg width="32" height="32" viewBox="0 0 32 32" fill="none" xmlns="http://www.w3.org/2000/svg">
<path fill-rule="evenodd" clip-rule="evenodd" d="M16 2.66663C8.63622 2.66663 2.66669 8.63616 2.66669 16C2.66669 23.3637 8.63622 29.3333 16 29.3333C23.3638 29.3333 29.3334 23.3637 29.3334 16C29.3334 12.4637 27.9286 9.07236 25.4282 6.57187C22.9276 4.07139 19.5363 2.66663 16 2.66663ZM16 26.6666C10.109 26.6666 5.33335 21.891 5.33335 16C5.33335 10.1089 10.109 5.33329 16 5.33329C21.8911 5.33329 26.6667 10.1089 26.6667 16C26.6667 18.8289 25.5428 21.5421 23.5426 23.5425C21.5422 25.5428 18.829 26.6666 16 26.6666ZM17.1734 8.66663V15.52L22.0134 20.36C22.2691 20.6237 22.2691 21.0429 22.0134 21.3066L21.3067 22.0133C21.043 22.269 20.6238 22.269 20.36 22.0133L15.0267 16.68C14.9046 16.5545 14.8332 16.3882 14.8267 16.2133V8.66663C14.8267 8.29844 15.1252 7.99996 15.4934 7.99996H16.5067C16.8748 7.99996 17.1734 8.29844 17.1734 8.66663Z" fill="black"/>
</svg>
