<svg width="32" height="32" viewBox="0 0 32 32" fill="none" xmlns="http://www.w3.org/2000/svg">
<path d="M16.0001 2.66663C10.6749 2.66663 6.34247 6.99903 6.34247 12.3242C6.34247 18.933 14.9851 28.635 15.3531 29.0448C15.6987 29.4297 16.3021 29.429 16.6472 29.0448C17.0151 28.635 25.6577 18.933 25.6577 12.3242C25.6576 6.99903 21.3253 2.66663 16.0001 2.66663ZM16.0001 17.1833C13.3208 17.1833 11.1412 15.0036 11.1412 12.3242C11.1412 9.64496 13.3209 7.46527 16.0001 7.46527C18.6793 7.46527 20.8591 9.64501 20.8591 12.3243C20.8591 15.0036 18.6793 17.1833 16.0001 17.1833Z" fill="black"/>
</svg>
